<svg width="78" height="101" viewBox="0 0 78 101" fill="none" xmlns="http://www.w3.org/2000/svg">
<g clip-path="url(#clip0_204_3251)">
<path d="M76.7795 87.9585H76.6467C76.6466 91.2905 75.3134 93.1569 72.6477 94.2231C62.3844 98.2218 50.255 100.221 38.7922 100.221C27.1961 100.221 15.0667 98.2217 4.93674 94.2231C2.27105 93.1569 0.937823 91.2905 0.937714 87.9585V0.52002H76.7795V87.9585ZM62.7844 72.0962C56.6531 72.0962 51.9875 75.1627 51.9875 81.9604C51.9877 89.5575 57.453 91.5571 62.2512 91.5571C66.7829 91.557 68.5158 90.0903 68.5158 90.0903V87.8247C68.5158 87.8247 66.9155 89.2905 63.5832 89.2905C60.7844 89.2904 56.6532 87.9578 56.5197 81.6938C56.3865 75.9624 58.9185 73.9624 62.384 73.9624C64.3837 74.0959 65.3172 74.6294 65.9836 74.896C67.1829 75.5624 67.4494 76.3623 67.4494 76.4956H67.5822L68.5158 73.2964C68.5158 73.2964 66.7831 72.0963 62.7844 72.0962ZM8.40158 72.4966C8.8013 72.63 9.20141 72.8961 9.46799 73.1626C10.2677 73.829 10.4016 75.0294 10.4016 76.4956V91.1567H14.8V82.7603H16.3996L22.6643 91.2905H28.1291L21.0647 82.3599C23.8637 81.5601 25.9963 80.0935 25.9963 77.2944C25.9961 74.096 23.9964 72.3628 18.9319 72.3628H8.40158V72.4966ZM29.9953 72.4966C30.2617 72.63 30.7943 72.8962 31.0608 73.1626C31.7272 73.829 31.9943 74.8957 31.9944 76.0952V91.1577H40.3918C44.9235 91.1576 48.2551 89.424 48.2551 85.4253C48.3884 82.2267 45.8564 80.7609 43.1906 80.6274C45.0567 80.3609 46.9231 78.8945 46.9231 76.6284C46.9231 74.6291 46.123 72.3638 40.1252 72.3638H29.9953V72.4966ZM39.0588 81.6938C42.5241 81.6939 43.9903 82.7598 43.9904 85.4253C43.8572 88.3577 42.124 89.4243 39.1916 89.4243H36.5266V81.6938H39.0588ZM17.8654 74.0962C20.2646 74.0962 21.5978 74.7624 21.5979 77.4282C21.5979 79.6941 19.865 81.1605 17.1994 81.1606H14.9328V74.0962H17.8654ZM38.925 74.0962C41.0575 74.0962 42.5236 74.496 42.5237 76.895C42.5237 79.2944 40.5245 79.9604 38.3918 79.9604H36.5256V74.0962H38.925ZM16.3996 3.98486C12.8008 3.98486 9.73459 6.78397 9.73459 10.2495C9.73466 13.7149 12.2673 16.2475 15.7326 16.2476H16.133V13.9819C14.267 13.9819 13.334 12.3821 13.467 10.5161C13.6001 8.65005 15.2 7.5835 16.6662 7.5835H19.3313V11.4487H27.3283V13.3149H25.1965V14.3813L29.5949 16.1138V11.4487H41.3244V14.1147C41.3244 14.9145 41.3238 15.4473 41.1906 15.8472C41.1906 16.2469 41.0576 16.5142 40.7912 16.7808C40.3914 17.0471 39.9915 17.1802 39.4582 17.1802C38.6585 17.3135 36.3927 17.314 35.0598 17.314C32.5274 17.314 29.4614 17.8467 29.4612 21.5786C29.4612 25.8439 33.327 26.9106 35.3264 26.9106C37.1919 26.9106 38.3913 26.2445 39.0578 25.7114H40.7912V28.3765C38.6586 27.5767 35.9926 28.1097 33.1936 28.6431C31.1945 29.0429 29.195 29.31 27.0627 29.3101C23.4639 29.3101 19.8649 26.6437 19.4651 22.1118L17.7317 21.0454C17.4653 25.9769 19.0652 29.0427 24.1301 31.7085C30.2614 34.774 34.3934 37.707 36.1262 43.0386H36.6584V39.0396C41.7234 42.3718 44.6566 45.038 45.9895 48.2368C46.6557 49.5699 47.1882 51.7029 47.3215 53.5688H47.8557C48.2555 51.9694 48.5213 48.6369 47.4553 45.7046C47.1888 45.1716 47.0555 44.7714 46.7893 44.3716L51.5871 44.6382C51.4539 46.3709 51.4543 48.5037 51.7209 50.6362L49.9875 50.769V51.3022L51.8537 51.436C51.9872 52.2358 52.1208 53.0356 52.2541 53.8354H52.7873V51.436L61.051 51.8354C61.051 53.435 60.9176 55.1678 60.5178 57.0337L58.6516 57.3003V57.7007L60.384 57.8345C60.3839 58.5008 60.118 59.1672 59.9846 59.8335H60.5178L61.4504 57.9673L67.9817 58.5005C66.9152 59.9666 65.7159 61.2999 64.1164 62.2329C63.7164 62.2329 63.05 62.3657 62.7834 62.3657C61.1834 62.6326 52.12 63.9659 49.7209 64.3657C49.4543 63.2994 49.0549 62.3661 48.7883 61.6997C45.9894 55.7018 42.5232 53.7027 25.4621 42.2397C19.9974 38.6409 11.3335 32.6422 8.80099 27.7104C8.00141 26.1113 7.60183 24.2455 7.60178 22.646C7.60178 20.9133 8.1353 19.0472 9.20139 17.7144V16.1147C7.06894 17.1811 5.46899 20.2464 5.46896 23.5786C5.46896 25.4446 5.60239 26.7778 6.26877 28.5103C7.33491 31.3095 9.20158 33.7083 13.7336 37.8403C17.9987 41.7057 20.931 44.9052 22.5305 49.1704H23.0637V44.9048C23.9967 45.7047 25.0628 46.5049 26.1291 47.1714C29.9946 49.9704 33.9935 53.8354 35.8596 57.9673H36.3928V53.9692C43.457 58.6345 48.3889 63.0329 49.4553 71.8296H49.9885C50.2552 69.6972 50.1217 67.4309 49.7219 65.5649H61.4514C65.1835 65.565 68.7824 66.632 68.7824 70.4976H69.4485L70.7815 65.5649C69.8485 64.2319 68.649 63.166 66.6496 62.4995C71.1815 58.9008 72.5138 54.2355 72.5139 50.5034C72.5139 46.3715 70.915 42.7727 68.5158 40.1069C69.3158 38.774 70.9153 36.1074 71.1819 35.7075C71.5814 35.1744 71.7144 34.2419 71.5813 33.5757C71.448 32.7759 71.1813 32.1093 70.2483 31.7095C69.1817 31.3095 63.1838 28.1108 63.1838 28.1108H48.9221L43.8576 31.1763V22.3794H42.258C42.7908 21.9797 43.19 21.5796 43.3235 21.313L43.1906 20.9126C41.3246 22.3787 40.3918 22.2454 37.0598 21.1792C35.1937 20.5127 33.4606 21.1798 32.261 22.1128V21.5796C32.261 20.6466 33.0607 19.7128 35.593 19.8462C37.459 19.9795 39.0587 19.98 39.592 19.98C41.1914 19.8467 42.2578 19.7133 42.924 19.1802C44.1238 18.3804 44.3899 17.1803 44.3899 16.647C44.5233 15.8472 44.5237 14.5142 44.5237 13.5815V7.8501H22.1311V3.98486H16.3996ZM6.40256 36.1079C5.60282 37.3075 5.06955 39.0411 5.06955 40.5073C5.06964 43.0394 5.86997 44.9055 6.80295 46.3716C8.26909 48.6375 9.86881 50.104 13.6008 52.9028C17.7326 55.9686 20.5316 59.5676 22.1311 63.4331H22.7971V59.1675C28.3953 62.3664 33.3277 65.2988 35.7268 70.6304H36.26C35.3266 65.0322 32.261 60.7667 21.0647 53.8354C10.5348 47.3043 7.06855 44.3722 6.80197 40.1069C6.80198 39.174 6.93541 37.7077 7.33517 36.7749L6.40256 36.1079ZM69.5822 52.6362C69.5822 53.969 69.3157 55.0354 68.7824 56.2349L61.4514 57.1685C61.9845 55.8355 62.5178 54.1027 62.7844 52.2368L69.5822 52.6362ZM59.9856 45.3052C60.3854 46.7714 60.6516 48.5045 60.6516 50.3706L52.3879 50.9038C52.521 49.0378 52.9207 47.0379 53.3205 45.0386L59.9856 45.3052ZM68.382 45.5718C69.0485 46.9047 69.449 48.3712 69.5822 49.8374L63.051 50.2368C63.1841 48.7708 63.1837 47.1715 62.9172 45.439L68.382 45.5718ZM51.8547 39.5737C51.7216 40.2402 51.4543 41.5731 51.1877 43.7056L46.5227 43.9722C47.9888 41.9731 49.5888 40.64 51.8547 39.5737ZM57.5862 38.5073C58.1193 39.3071 58.9187 40.9069 59.5852 43.3062L53.8537 43.7056C54.2536 41.9731 54.7869 40.2405 55.4533 38.6411C55.8532 38.5077 56.3865 38.5073 56.7863 38.5073H57.5862ZM61.4514 39.3071C63.4508 39.9736 65.183 41.3071 66.5158 42.9067L62.5178 43.1724C62.2512 41.8395 61.9847 40.6399 61.4514 39.3071ZM67.9826 34.6421L65.8498 38.2407C65.1834 37.7076 64.6505 37.4407 64.1174 37.1743L64.7834 34.9087L61.4514 33.0425L61.3176 33.4429L62.5178 35.0415L61.718 36.1079C60.2518 35.5748 58.3856 35.4414 56.7863 35.5747C52.1211 35.5747 47.1895 38.1074 44.5237 42.106C43.3239 40.6399 41.458 39.1741 39.592 37.8413L49.7219 31.7095H62.2512L67.9826 34.6421ZM38.3918 31.4429C39.858 31.4429 41.0579 31.8431 42.1242 32.3765L36.5256 35.7085C34.9261 34.6422 32.3937 33.0424 31.594 32.5093C33.1934 32.2427 36.3924 31.443 38.3918 31.4429ZM33.4602 23.979C34.6596 22.9127 35.7265 22.6455 37.7258 23.0454C37.326 23.5785 36.6594 24.2451 35.4602 24.3784C34.6604 24.3784 33.9933 24.2456 33.4602 23.979Z" fill="white"/>
</g>
<defs>
<clipPath id="clip0_204_3251">
<rect width="76.1246" height="100" fill="white" transform="translate(0.937744 0.5)"/>
</clipPath>
</defs>
</svg>
