<svg width="78" height="101" viewBox="0 0 78 101" fill="none" xmlns="http://www.w3.org/2000/svg">
<g clip-path="url(#clip0_17_5)">
<path fill-rule="evenodd" clip-rule="evenodd" d="M76.6463 88.0877C76.6463 91.42 75.3135 93.2861 72.6478 94.3524C62.3844 98.3511 50.255 100.35 38.7921 100.35C27.1959 100.35 15.0665 98.3511 4.93644 94.3524C2.27064 93.2861 0.937744 91.42 0.937744 88.0877V0.649536H76.7797V88.0877H76.6463Z" fill="#005DAA"/>
<path fill-rule="evenodd" clip-rule="evenodd" d="M21.0644 53.9655C10.5345 47.4343 7.069 44.5019 6.80242 40.2367C6.80242 39.3036 6.93571 37.8373 7.33558 36.9044L6.40272 36.238C5.60298 37.4376 5.06982 39.1703 5.06982 40.6365C5.06982 43.1689 5.86956 45.0349 6.80259 46.5011C8.26878 48.7672 9.86826 50.2334 13.6004 53.0323C17.7324 56.0982 20.5315 59.6968 22.1309 63.5624H22.7974V59.2971C28.3956 62.4961 33.3275 65.4285 35.7265 70.7601H36.2598C35.3265 65.1619 32.2608 60.8968 21.0644 53.9655ZM69.4487 70.6268H68.7822C68.7822 66.7612 65.1834 65.695 61.4513 65.695H49.7218C50.1217 67.5611 50.2549 69.827 49.9882 71.9595H49.455C48.3887 63.1625 43.457 58.764 36.3926 54.0986V58.0973H35.8593C33.9932 53.9653 29.9947 50.0999 26.1291 47.3008C25.0628 46.6344 23.9965 45.8347 23.0634 45.0347V49.3H22.5301C20.9306 45.0347 17.9983 41.8358 13.7331 37.9704C9.20112 33.8384 7.33506 31.4393 6.26891 28.6401C5.60246 26.9075 5.469 25.5744 5.469 23.7084C5.469 20.3761 7.06865 17.3104 9.20112 16.2441V17.8436C8.13497 19.1765 7.60164 21.0426 7.60164 22.7753C7.60164 24.375 8.00151 26.241 8.80125 27.8403C11.3338 32.7721 19.9978 38.7701 25.4625 42.3689C42.5236 53.8319 45.9893 55.8314 48.7882 61.8293C49.0548 62.4957 49.4547 63.4288 49.7213 64.4951C52.1205 64.0952 61.1842 62.7625 62.7837 62.4957C63.0503 62.4957 63.7165 62.3624 64.1166 62.3624C65.7161 61.4294 66.9155 60.0963 67.982 58.6301L61.4508 58.097L60.5179 59.963H59.9846C60.1181 59.2966 60.3845 58.6301 60.3845 57.9637L58.6519 57.8302V57.4304L60.5179 57.1638C60.9178 55.2977 61.0511 53.5651 61.0511 51.9655L52.7871 51.5656V53.965H52.2538C52.1205 53.1651 51.9874 52.3653 51.8539 51.5656L49.9878 51.4323V50.899L51.7206 50.7657C51.454 48.633 51.454 46.5004 51.5873 44.7676L46.7889 44.5011C47.0553 44.9009 47.1888 45.3008 47.4553 45.834C48.5215 48.7663 48.2551 52.0986 47.8552 53.6981H47.3219C47.1886 51.832 46.6554 49.6994 45.9891 48.3663C44.6562 45.1675 41.7239 42.5017 36.6588 39.1695V43.168H36.1262C34.3934 37.8364 30.2615 34.904 24.1301 31.8385C19.0651 29.1727 17.4656 26.1069 17.732 21.1753L19.4648 22.2416C19.8647 26.7735 23.4635 29.4393 27.0623 29.4393C29.1948 29.4393 31.1943 29.1729 33.1935 28.773C35.9926 28.2397 38.6584 27.7067 40.791 28.5064V25.8406H39.0582C38.3918 26.3738 37.1922 27.0402 35.3261 27.0402C33.3268 27.0402 29.4614 25.9739 29.4614 21.7087C29.4614 17.9764 32.527 17.4434 35.0595 17.4434C36.3924 17.4434 38.6584 17.4434 39.4581 17.3101C39.9914 17.3101 40.3911 17.1766 40.791 16.9102C41.0574 16.6436 41.1909 16.3769 41.1909 15.9772C41.3242 15.5773 41.3242 15.0443 41.3242 14.2444V11.5786H29.5947V16.2438L25.1963 14.511V13.4447H27.3287V11.5786H19.3317V7.71321H16.6659C15.1997 7.71321 13.6 8.77953 13.4669 10.6456C13.3338 12.5116 14.2667 14.1111 16.1327 14.1111V16.3771H15.7328C12.2673 16.3771 9.7348 13.8445 9.7348 10.379C9.7348 6.91347 12.8005 4.11438 16.3993 4.11438H22.1308V7.97979H44.5237V13.7114C44.5237 14.6443 44.5237 15.9774 44.3902 16.7771C44.3902 17.3104 44.1238 18.5099 42.924 19.3096C42.2577 19.8428 41.1914 19.9761 39.5919 20.1093C39.0586 20.1093 37.4593 20.1093 35.5932 19.9761C33.0607 19.8426 32.261 20.7758 32.261 21.7088V22.242C33.4606 21.309 35.1934 20.6425 37.0594 21.309C40.3917 22.3753 41.3245 22.5087 43.1906 21.0426L43.3239 21.4424C43.1906 21.709 42.7907 22.1089 42.2577 22.5087H43.8572V31.3057L48.922 28.24H63.1841C63.1841 28.24 69.1821 31.439 70.2484 31.8389C71.1815 32.2387 71.4481 32.9052 71.5813 33.7049C71.7146 34.3714 71.5813 35.3044 71.1815 35.8376C70.9149 36.2374 69.3154 38.9032 68.5155 40.2361C70.9149 42.9019 72.5142 46.5006 72.5142 50.6327C72.5142 54.3649 71.1815 59.03 66.6494 62.6288C68.649 63.2953 69.8484 64.3616 70.7814 65.6947L69.4487 70.6268ZM37.7257 23.1755C35.7263 22.7757 34.66 23.0422 33.4606 24.1086C33.9937 24.3751 34.6602 24.5084 35.4599 24.5084C36.6594 24.3751 37.3258 23.7087 37.7257 23.1755ZM36.5261 35.8381L42.1243 32.5058C41.0579 31.9725 39.8583 31.5728 38.3921 31.5728C36.3928 31.5728 33.1938 32.3725 31.5944 32.6391C32.3941 33.1723 34.9266 34.7718 36.5261 35.8381ZM61.7179 36.238L62.5176 35.1716L61.318 33.5722L61.4513 33.1721L64.7836 35.0383L64.1173 37.3043C64.6504 37.5707 65.1834 37.8374 65.8499 38.3706L67.9825 34.7718L62.2509 31.8394H49.7218L39.5917 37.9707C41.458 39.3036 43.3239 40.7698 44.5237 42.236C47.1894 38.2373 52.121 35.7048 56.7863 35.7048C58.3856 35.5715 60.2517 35.7048 61.7179 36.238ZM60.6516 50.5C60.6516 48.6339 60.385 46.9013 59.9851 45.4351L53.3206 45.1686C52.9207 47.1679 52.5209 49.1673 52.3878 51.0333L60.6516 50.5ZM62.9175 45.5683C63.1841 47.301 63.1841 48.9005 63.051 50.3667L69.582 49.9668C69.4487 48.5006 69.0488 47.0344 68.3824 45.7015L62.9175 45.5683ZM59.5852 43.4356C58.9188 41.0364 58.1191 39.4369 57.5859 38.6372H56.7861C56.3863 38.6372 55.8531 38.6372 55.4533 38.7706C54.7868 40.3701 54.2536 42.1029 53.8538 43.8355L59.5852 43.4356ZM61.4511 39.4369C61.9845 40.7698 62.2509 41.9694 62.5174 43.3025L66.5162 43.0359C65.1833 41.4363 63.4507 40.1034 61.4511 39.4369ZM68.7822 56.3647C69.3156 55.1651 69.582 54.0988 69.582 52.7659L62.7842 52.366C62.5176 54.2321 61.9845 55.9649 61.4513 57.2979L68.7822 56.3647ZM51.8543 39.7035C49.5883 40.7698 47.9888 42.1029 46.5227 44.1021L51.1878 43.8355C51.4544 41.7028 51.7211 40.3699 51.8543 39.7035Z" fill="#FFD200"/>
<path fill-rule="evenodd" clip-rule="evenodd" d="M43.1908 80.7568C45.0568 80.4902 46.9229 79.0242 46.9229 76.7581C46.9229 74.7588 46.1232 72.493 40.1251 72.493H29.9951V72.6263C30.2615 72.7598 30.7948 73.0262 31.0612 73.2927C31.7277 73.9592 31.9942 75.0255 31.9942 76.2251V91.2869H40.3915C44.9234 91.2869 48.2556 89.5541 48.2556 85.5553C48.3891 82.3565 45.8566 80.8903 43.1908 80.7568ZM38.9255 74.2258C41.058 74.2258 42.5242 74.6256 42.5242 77.0247C42.5242 79.4241 40.5248 80.0904 38.3922 80.0904H36.5261V74.2258H38.9255ZM39.1921 89.554H36.5263V81.8231H39.0588C42.5243 81.8231 43.9905 82.8895 43.9905 85.5553C43.8572 88.4876 42.1245 89.554 39.1921 89.554ZM22.6641 91.42H28.129L21.0646 82.4896C23.8637 81.6898 25.9965 80.2237 25.9965 77.4246C25.9965 74.2258 23.997 72.4928 18.9322 72.4928H8.4021V72.6261C8.80197 72.7596 9.20184 73.026 9.46842 73.2926C10.2682 73.959 10.4014 75.1586 10.4014 76.6248V91.2867H14.8V82.8895H16.3995L22.6641 91.42ZM14.9333 74.2258H17.8657C20.2649 74.2258 21.5978 74.8921 21.5978 77.558C21.5978 79.824 19.865 81.2901 17.1992 81.2901H14.9333V74.2258ZM65.9834 75.0253C67.183 75.6918 67.4496 76.4915 67.4496 76.6248H67.5828L68.5157 73.4259C68.5157 73.4259 66.7831 72.2263 62.7842 72.2263C56.6529 72.2263 51.9877 75.2919 51.9877 82.0897C51.9877 89.6871 57.4526 91.6866 62.2509 91.6866C66.7829 91.6866 68.5155 90.2204 68.5155 90.2204V87.9545C68.5155 87.9545 66.916 89.4207 63.5838 89.4207C60.7849 89.4207 56.6527 88.0878 56.5194 81.8231C56.3861 76.0917 58.9186 74.0923 62.3842 74.0923C64.3839 74.2258 65.3169 74.7588 65.9834 75.0253Z" fill="white"/>
</g>
<defs>
<clipPath id="clip0_17_5">
<rect width="76.1246" height="100" fill="white" transform="translate(0.937744 0.5)"/>
</clipPath>
</defs>
</svg>
